<mxfile host="app.diagrams.net" modified="2023-10-28T23:36:33.998Z" agent="Mozilla/5.0 (Windows NT 10.0; Win64; x64) AppleWebKit/537.36 (KHTML, like Gecko) Chrome/118.0.0.0 Safari/537.36" version="22.0.8" etag="3fk9vOz1AproPxj5u6je" type="github">
  <diagram name="Page-1" id="cmvLj-Jmu_eHXBWfitiG">
    <mxGraphModel>
      <root>
        <mxCell id="0" />
        <mxCell id="1" parent="0" />
      </root>
    </mxGraphModel>
  </diagram>
</mxfile>
